<svg width="103" height="85" viewBox="0 0 103 85" fill="none" xmlns="http://www.w3.org/2000/svg">
<mask id="mask0_429_257" style="mask-type:alpha" maskUnits="userSpaceOnUse" x="0" y="0" width="103" height="85">
<path d="M102.576 25.7L51.335 84.5001L0.09375 25.7L11.623 8.90001L22.5118 4.1L36.6031 0.5H66.0668L80.1581 4.1L91.0469 8.90001L102.576 25.7Z" fill="#46ACFA"/>
</mask>
<g mask="url(#mask0_429_257)">
<rect x="-40.1699" y="-43.2139" width="183.004" height="171.429" fill="#6BBEFE"/>
<path d="M102.574 25.7L51.333 84.5001L0.0917969 25.7L11.6211 8.90001L22.5098 4.1L36.6012 0.5H66.0648L80.1562 4.1L91.0449 8.90001L102.574 25.7Z" fill="#46ACFA"/>
<path d="M69.266 17.3008V36.5008L60.2988 26.9008L69.266 17.3008Z" fill="#8CCDFF"/>
<path d="M33.3984 36.5008L51.3329 17.3008L69.2673 36.5008H33.3984Z" fill="#78C2FA"/>
<path d="M33.3974 36.5008L16.1035 32.9008L33.3974 17.3008V36.5008Z" fill="#A6D8FF"/>
<path d="M69.2676 36.5008L86.5615 32.9008L69.2676 17.3008V36.5008Z" fill="#A6D8FF"/>
<path d="M51.3329 17.3008H33.3984L42.3656 26.9008L51.3329 17.3008Z" fill="#A8D9FF"/>
<path d="M33.3974 17.301L16.744 12.501L16.1035 32.901L33.3974 17.301Z" fill="#52B4FF"/>
<path d="M69.2676 17.301L85.921 12.501L86.5615 32.901L69.2676 17.301Z" fill="#4CAEFA"/>
<path d="M16.7452 12.501L0.0917969 25.701L16.1047 32.901L16.7452 12.501Z" fill="#A6D8FF"/>
<path d="M85.9199 12.501L102.573 25.701L86.5604 32.901L85.9199 12.501Z" fill="#A6D8FF"/>
<path d="M51.332 17.3008H69.2665L60.2992 26.9008L51.332 17.3008Z" fill="#A8D9FF"/>
<path d="M33.3984 17.3008V36.5008L42.3656 26.9008L33.3984 17.3008Z" fill="#8CCDFF"/>
<path d="M69.2665 36.5004L51.332 96.5004L86.5604 32.9004L69.2665 36.5004Z" fill="#61B8FA"/>
<path d="M102.573 25.7002L51.332 96.5003L86.5604 32.9002L102.573 25.7002Z" fill="#41AAFA"/>
<path d="M51.3329 96.5L33.3984 36.5H69.2673L51.3329 96.5Z" fill="#94D1FF"/>
<path d="M51.332 36.5H69.2665L51.332 96.5V36.5Z" fill="#94D1FF"/>
<path d="M69.2665 36.5H51.332L62.541 59L69.2665 36.5Z" fill="#BFE3FF"/>
<path d="M33.3984 36.5H51.3329L40.1238 59L33.3984 36.5Z" fill="#BFE3FF"/>
<path d="M33.3974 36.5004L51.3318 96.5004L16.1035 32.9004L33.3974 36.5004Z" fill="#4AAEFA"/>
<path d="M0.0917969 25.7002L51.333 96.5003L16.1047 32.9002L0.0917969 25.7002Z" fill="#289FFA"/>
<path d="M0.0917969 25.7004L11.6211 8.90039L16.7452 12.5004L0.0917969 25.7004Z" fill="#4AAEFA"/>
<path d="M102.573 25.7004L91.044 8.90039L85.9199 12.5004L102.573 25.7004Z" fill="#55B2FA"/>
<path d="M36.5992 0.5H66.0629L80.1543 4.1L91.043 8.90001L85.9189 12.5L69.2655 17.3H33.3967L16.7433 12.5L11.6191 8.90001L22.5079 4.1L36.5992 0.5Z" fill="#7EC7FF"/>
<rect x="-4.06836" y="-0.148438" width="106.637" height="84.3244" fill="url(#paint0_linear_429_257)"/>
</g>
<defs>
<linearGradient id="paint0_linear_429_257" x1="-4.06836" y1="-0.148361" x2="77.9846" y2="103.616" gradientUnits="userSpaceOnUse">
<stop stop-color="#24FF00" stop-opacity="0.52"/>
<stop offset="1" stop-color="white" stop-opacity="0"/>
</linearGradient>
</defs>
</svg>
