<svg width="379" height="350" viewBox="0 0 379 350" fill="none" xmlns="http://www.w3.org/2000/svg">
<g filter="url(#filter0_di_429_137)">
<path fill-rule="evenodd" clip-rule="evenodd" d="M87.5657 40.3984H292.012C299.825 40.3984 306.336 41.5754 314.149 45.1063C323.265 48.6373 328.473 54.5222 331.078 59.2301C331.078 59.2301 331.078 60.4071 332.38 60.4071C336.287 66.2919 338.891 73.3538 338.891 81.5926C338.891 88.6545 337.589 95.7164 332.38 102.778L203.462 302.864C200.857 307.572 195.649 309.926 189.138 309.926C183.929 309.926 178.72 307.572 174.813 302.864L48.4996 102.778C45.8952 98.0703 40.6864 92.1854 40.6864 82.7696C39.3842 74.5308 41.9886 67.4689 45.8952 60.4071C49.8018 53.3452 56.3128 47.4603 65.4283 45.1063C73.2415 40.3984 82.3569 40.3984 87.5657 40.3984ZM173.511 68.6459H87.5657C82.3569 68.6459 79.7525 68.6459 78.4503 69.8229C75.8459 70.9998 74.5437 72.1768 73.2415 74.5308C71.9393 75.7077 71.9393 78.0617 71.9393 80.4157C71.9393 81.5926 73.2415 82.7696 75.8459 87.4775L173.511 240.485V68.6459ZM204.764 68.6459V241.661L303.732 87.4775C305.034 85.1236 305.034 82.7696 305.034 80.4157C305.034 78.0617 305.034 75.7077 303.732 74.5308C302.429 73.3538 302.429 72.1768 301.127 72.1768L299.825 70.9998C297.221 69.8229 294.616 69.8229 290.709 69.8229H204.764V68.6459Z" fill="white"/>
</g>
<g filter="url(#filter1_f_429_137)">
<path d="M332.078 59.2076V58.9719L331.953 58.746C329.25 53.8596 323.877 47.8092 314.536 44.1838C306.593 40.5979 299.945 39.3984 292.012 39.3984H87.5657L87.5084 39.3984C82.3377 39.3984 73.0605 39.3983 65.0374 44.1748C55.6973 46.6299 49.0225 52.6881 45.0202 59.923C41.083 67.0401 38.3617 74.3189 39.6865 82.8482C39.71 90.6619 43.2295 96.2157 45.8958 100.423C46.5431 101.444 47.1401 102.387 47.6246 103.262L47.6386 103.288L47.654 103.312L173.968 303.398L174.002 303.453L174.044 303.503C178.131 308.428 183.617 310.926 189.138 310.926C195.861 310.926 201.477 308.489 204.32 303.378L333.203 103.347C338.56 96.071 339.891 88.7877 339.891 81.5926C339.891 73.1312 337.213 65.8799 333.213 59.854L332.916 59.4071H332.38C332.21 59.4071 332.15 59.3704 332.143 59.3666C332.135 59.3619 332.127 59.3559 332.116 59.3345C332.101 59.3074 332.089 59.2701 332.082 59.2327C332.08 59.2253 332.079 59.219 332.079 59.214C332.078 59.2115 332.078 59.2094 332.078 59.2076ZM78.8621 70.7341L79.0047 70.6697L79.1208 70.5647C79.5234 70.2009 80.2243 69.9305 81.643 69.788C83.046 69.6471 84.9392 69.6459 87.5657 69.6459H172.511V237.059L76.7056 86.9659C75.5958 84.9615 74.7159 83.5842 74.0828 82.5932C73.9673 82.4125 73.8601 82.2446 73.7612 82.0881C73.4336 81.57 73.2222 81.2153 73.0899 80.9313C72.9634 80.6597 72.9393 80.514 72.9393 80.4157C72.9393 79.2183 72.9417 78.1251 73.0898 77.188C73.2386 76.2463 73.511 75.6351 73.912 75.2726L74.0358 75.1608L74.1165 75.0148C74.7322 73.9019 75.3198 73.1175 76.0281 72.4773C76.739 71.8348 77.616 71.2973 78.8621 70.7341ZM300.457 72.9187L300.742 73.1768H301.127C301.288 73.1768 301.342 73.2091 301.366 73.2242C301.411 73.2532 301.486 73.3182 301.625 73.506C301.675 73.574 301.733 73.6596 301.8 73.7584C302.063 74.1442 302.464 74.7326 303.061 75.2726C303.462 75.6351 303.734 76.2463 303.883 77.188C304.031 78.1251 304.034 79.2183 304.034 80.4157C304.034 82.7834 304.017 84.8766 302.872 86.9656L205.764 238.252V70.8229H290.709C294.589 70.8229 296.947 70.8385 299.273 71.8491L300.457 72.9187Z" stroke="#0085FF" stroke-width="2"/>
</g>
<defs>
<filter id="filter0_di_429_137" x="0.347656" y="0.398438" width="378.543" height="349.527" filterUnits="userSpaceOnUse" color-interpolation-filters="sRGB">
<feFlood flood-opacity="0" result="BackgroundImageFix"/>
<feColorMatrix in="SourceAlpha" type="matrix" values="0 0 0 0 0 0 0 0 0 0 0 0 0 0 0 0 0 0 127 0" result="hardAlpha"/>
<feOffset/>
<feGaussianBlur stdDeviation="20"/>
<feComposite in2="hardAlpha" operator="out"/>
<feColorMatrix type="matrix" values="0 0 0 0 0 0 0 0 0 0.52 0 0 0 0 1 0 0 0 1 0"/>
<feBlend mode="normal" in2="BackgroundImageFix" result="effect1_dropShadow_429_137"/>
<feBlend mode="normal" in="SourceGraphic" in2="effect1_dropShadow_429_137" result="shape"/>
<feColorMatrix in="SourceAlpha" type="matrix" values="0 0 0 0 0 0 0 0 0 0 0 0 0 0 0 0 0 0 127 0" result="hardAlpha"/>
<feOffset/>
<feGaussianBlur stdDeviation="7.5"/>
<feComposite in2="hardAlpha" operator="arithmetic" k2="-1" k3="1"/>
<feColorMatrix type="matrix" values="0 0 0 0 0 0 0 0 0 0.52 0 0 0 0 1 0 0 0 1 0"/>
<feBlend mode="normal" in2="shape" result="effect2_innerShadow_429_137"/>
</filter>
<filter id="filter1_f_429_137" x="37.3477" y="37.3984" width="304.543" height="275.527" filterUnits="userSpaceOnUse" color-interpolation-filters="sRGB">
<feFlood flood-opacity="0" result="BackgroundImageFix"/>
<feBlend mode="normal" in="SourceGraphic" in2="BackgroundImageFix" result="shape"/>
<feGaussianBlur stdDeviation="0.5" result="effect1_foregroundBlur_429_137"/>
</filter>
</defs>
</svg>
