<svg width="214" height="227" viewBox="0 0 214 227" fill="none" xmlns="http://www.w3.org/2000/svg">
<g filter="url(#filter0_f_429_42)">
<g filter="url(#filter1_i_429_42)">
<path fill-rule="evenodd" clip-rule="evenodd" d="M48.8401 22H165.053C169.494 22 173.195 22.7968 177.636 25.1872C182.818 27.5777 185.779 31.5618 187.259 34.749C187.259 34.749 187.259 35.5458 187.999 35.5458C190.22 39.5299 191.7 44.3108 191.7 49.8885C191.7 54.6693 190.96 59.4502 187.999 64.2311L114.719 199.689C113.238 202.877 110.277 204.47 106.576 204.47C103.615 204.47 100.655 202.877 98.434 199.689L26.6338 64.2311C25.1534 61.0438 22.1926 57.0598 22.1926 50.6853C21.4523 45.1076 22.9328 40.3267 25.1534 35.5458C27.374 30.7649 31.0751 26.7809 36.2565 25.1872C40.6978 22 45.8792 22 48.8401 22ZM97.6938 41.1235H48.8401C45.8792 41.1235 44.3988 41.1235 43.6586 41.9203C42.1782 42.7171 41.438 43.5139 40.6978 45.1076C39.9576 45.9044 39.9576 47.498 39.9576 49.0916C39.9576 49.8884 40.6978 50.6853 42.1782 53.8725L97.6938 157.458V41.1235ZM115.459 41.1235V158.255L171.715 53.8725C172.455 52.2789 172.455 50.6853 172.455 49.0916C172.455 47.498 172.455 45.9044 171.715 45.1076C170.974 44.3108 170.974 43.514 170.234 43.514L169.494 42.7171C168.014 41.9203 166.533 41.9203 164.313 41.9203H115.459V41.1235Z" fill="white"/>
</g>
<g filter="url(#filter2_f_429_42)">
<path d="M188.259 34.5458V34.5281L188.166 34.3278C186.612 30.9829 183.509 26.8049 178.083 24.2922C173.5 21.8301 169.641 21 165.053 21H48.8401L48.7871 21C45.858 20.9999 40.4793 20.9997 35.8069 24.2801C30.3683 26.0093 26.5306 30.2069 24.2464 35.1246C21.9984 39.9644 20.4367 44.9309 21.1927 50.7514C21.2093 56.0931 23.2418 59.9106 24.7575 62.7575C25.1223 63.4428 25.4572 64.0718 25.7269 64.6523L25.7379 64.6762L25.7503 64.6994L97.5505 200.158L97.5789 200.211L97.6135 200.261C99.9854 203.665 103.231 205.47 106.576 205.47C110.579 205.47 113.933 203.725 115.612 200.139L188.865 64.7325C191.943 59.749 192.7 54.7733 192.7 49.8885C192.7 44.1264 191.169 39.1792 188.873 35.059L188.587 34.5458H188.259ZM44.1325 42.8009L44.2785 42.7223L44.3912 42.6009C44.5162 42.4664 44.7762 42.3068 45.5354 42.216C46.2946 42.1252 47.3334 42.1235 48.8401 42.1235H96.6938V153.475L43.073 53.4252C42.4401 52.0644 41.9373 51.127 41.5779 50.4571C41.5125 50.3351 41.4518 50.222 41.396 50.1168C40.9983 49.3676 40.9576 49.1958 40.9576 49.0916C40.9576 48.2776 40.9593 47.5513 41.0414 46.9324C41.1259 46.2954 41.2759 45.9545 41.4304 45.7882L41.5381 45.6723L41.6047 45.5288C41.9482 44.7893 42.2656 44.2915 42.6333 43.8957C42.9991 43.5019 43.4554 43.1653 44.1325 42.8009ZM169.502 44.1946L169.798 44.514H170.109C170.114 44.5215 170.119 44.5297 170.124 44.5385C170.146 44.5737 170.174 44.6222 170.207 44.6809C170.353 44.9366 170.609 45.3869 170.982 45.7882C171.137 45.9545 171.287 46.2954 171.371 46.9324C171.453 47.5513 171.455 48.2776 171.455 49.0916C171.455 50.7002 171.442 52.0689 170.82 53.4252L116.459 154.292V42.9203H164.313C166.5 42.9203 167.706 42.9397 168.879 43.5248L169.502 44.1946Z" stroke="#038AFF" stroke-width="2"/>
</g>
</g>
<defs>
<filter id="filter0_f_429_42" x="0" y="0" width="213.701" height="226.47" filterUnits="userSpaceOnUse" color-interpolation-filters="sRGB">
<feFlood flood-opacity="0" result="BackgroundImageFix"/>
<feBlend mode="normal" in="SourceGraphic" in2="BackgroundImageFix" result="shape"/>
<feGaussianBlur stdDeviation="10" result="effect1_foregroundBlur_429_42"/>
</filter>
<filter id="filter1_i_429_42" x="22" y="22" width="169.701" height="182.47" filterUnits="userSpaceOnUse" color-interpolation-filters="sRGB">
<feFlood flood-opacity="0" result="BackgroundImageFix"/>
<feBlend mode="normal" in="SourceGraphic" in2="BackgroundImageFix" result="shape"/>
<feColorMatrix in="SourceAlpha" type="matrix" values="0 0 0 0 0 0 0 0 0 0 0 0 0 0 0 0 0 0 127 0" result="hardAlpha"/>
<feOffset/>
<feGaussianBlur stdDeviation="10"/>
<feComposite in2="hardAlpha" operator="arithmetic" k2="-1" k3="1"/>
<feColorMatrix type="matrix" values="0 0 0 0 0 0 0 0 0 0.521569 0 0 0 0 1 0 0 0 1 0"/>
<feBlend mode="normal" in2="shape" result="effect1_innerShadow_429_42"/>
</filter>
<filter id="filter2_f_429_42" x="15" y="15" width="183.701" height="196.47" filterUnits="userSpaceOnUse" color-interpolation-filters="sRGB">
<feFlood flood-opacity="0" result="BackgroundImageFix"/>
<feBlend mode="normal" in="SourceGraphic" in2="BackgroundImageFix" result="shape"/>
<feGaussianBlur stdDeviation="2.5" result="effect1_foregroundBlur_429_42"/>
</filter>
</defs>
</svg>
