<svg width="28" height="28" viewBox="0 0 28 28" fill="none" xmlns="http://www.w3.org/2000/svg">
<circle cx="14" cy="14" r="14" fill="#F8F8F8"/>
<path d="M13.2002 7.02027C12.5762 7.10144 11.7247 7.32756 11.2466 7.53919C10.608 7.82039 9.85862 8.27843 9.45332 8.6379C9.18506 8.87562 8.78559 9.27858 8.64855 9.44962C8.4561 9.69313 8.44444 9.70762 8.32781 9.85547C8.09454 10.1483 7.72423 10.8063 7.50846 11.305C7.31601 11.7485 7.11774 12.5051 7.03318 13.1139C6.98944 13.427 6.98944 14.4793 7.03026 14.7982C7.1119 15.3954 7.3131 16.1578 7.51429 16.6275C7.79421 17.2798 8.24033 17.9987 8.66604 18.4944C8.77393 18.6191 9.3396 19.1815 9.42416 19.2482C9.46498 19.28 9.56412 19.3583 9.64284 19.425C9.90527 19.6395 10.3718 19.9381 10.7771 20.1468C10.9229 20.2222 11.0599 20.2947 11.0833 20.3063C11.2086 20.373 11.6548 20.5411 11.888 20.6107C12.0338 20.6513 12.1913 20.7005 12.2379 20.715C12.3371 20.7469 12.8269 20.8397 13.1564 20.8861C13.276 20.9035 13.6609 20.918 14.0078 20.918C14.5473 20.918 14.7076 20.9064 15.1159 20.8426C15.3783 20.802 15.6495 20.7498 15.7223 20.7266C16.6758 20.4338 16.7458 20.4048 17.3698 20.0744C17.953 19.7642 18.4836 19.3641 18.9881 18.8568C19.5829 18.2567 19.9007 17.8074 20.3731 16.8855C20.5043 16.6304 20.6268 16.2825 20.8105 15.6534C20.8979 15.3432 21 14.6214 21 14.288V13.9575H20.8921C20.8309 13.9575 20.6034 13.9778 20.3877 14.001C19.096 14.1431 18.2504 14.4417 17.1657 15.1287C17.0374 15.2099 16.9266 15.2824 16.9178 15.2911C16.9091 15.2998 16.8508 15.3432 16.7866 15.3925C15.874 16.0593 15.0867 17.0623 14.5764 18.2103C14.3402 18.7379 14.1245 19.5526 14.0632 20.1584C14.0137 20.6194 13.9962 20.6078 13.932 20.0744C13.8154 19.1554 13.5151 18.2538 13.0777 17.5088C12.9581 17.3058 12.6841 16.8768 12.6607 16.8565C12.652 16.8478 12.5528 16.7231 12.442 16.5811C12.0163 16.0303 11.2524 15.3635 10.6167 14.9867C9.64284 14.4127 8.80017 14.1344 7.63967 14.001C7.54636 13.9923 7.47055 13.972 7.47055 13.9604C7.47055 13.9488 7.67758 13.9111 7.93125 13.8764C8.79142 13.7546 9.40083 13.5662 10.1385 13.1893C11.4011 12.5486 12.3429 11.6557 13.0748 10.4063C13.4684 9.73371 13.7512 8.95679 13.8825 8.18856C13.9233 7.93635 14.002 7.24349 14.002 7.10724V6.99998L13.6463 7.00288C13.448 7.00578 13.2497 7.01447 13.2002 7.02027Z" fill="black"/>
<path d="M19.4549 7.65258C19.0379 7.72215 18.9125 7.75404 18.4489 7.91928C17.8862 8.11641 17.1747 8.51647 16.7432 8.87884C16.2883 9.26151 15.8451 9.75143 15.571 10.1747C15.3465 10.5226 15.3348 10.5458 15.2065 10.8067C14.8712 11.4821 14.6992 12.1054 14.6117 12.9664C14.568 13.3897 14.5709 13.3926 14.8916 13.3636C15.3086 13.3288 15.848 13.2389 16.1163 13.1606C17.7812 12.6823 19.0642 11.6329 19.8223 10.1283C20.006 9.76593 20.0818 9.563 20.2392 9.04408C20.3151 8.78897 20.4113 8.16569 20.4229 7.84101L20.4317 7.5946L20.1401 7.5888C19.9477 7.5859 19.7173 7.60619 19.4549 7.65258Z" fill="black"/>
</svg>
