<svg width="28" height="28" viewBox="0 0 28 28" fill="none" xmlns="http://www.w3.org/2000/svg">
<circle cx="14" cy="14" r="14" fill="#F8F8F8"/>
<path d="M16.7844 14.17C16.7844 14.6871 16.6311 15.1925 16.3438 15.6225C16.0565 16.0524 15.6482 16.3875 15.1705 16.5854C14.6928 16.7833 14.1671 16.835 13.66 16.7342C13.1528 16.6333 12.687 16.3843 12.3213 16.0187C11.9557 15.653 11.7067 15.1872 11.6058 14.68C11.505 14.1729 11.5567 13.6472 11.7546 13.1695C11.9525 12.6918 12.2876 12.2835 12.7175 11.9962C13.1475 11.7089 13.6529 11.5556 14.17 11.5556C14.8631 11.5564 15.5277 11.8321 16.0178 12.3222C16.5079 12.8123 16.7836 13.4769 16.7844 14.17ZM22.34 10.5752V17.7648C22.3386 18.9778 21.8562 20.1407 20.9984 20.9984C20.1407 21.8562 18.9778 22.3386 17.7648 22.34H10.5752C9.3622 22.3386 8.19928 21.8562 7.34156 20.9984C6.48384 20.1407 6.00137 18.9778 6 17.7648V10.5752C6.00137 9.3622 6.48384 8.19928 7.34156 7.34156C8.19928 6.48384 9.3622 6.00137 10.5752 6H17.7648C18.9778 6.00137 20.1407 6.48384 20.9984 7.34156C21.8562 8.19928 22.3386 9.3622 22.34 10.5752ZM18.0916 14.17C18.0916 13.3944 17.8616 12.6362 17.4307 11.9913C16.9998 11.3464 16.3873 10.8437 15.6707 10.5469C14.9542 10.2501 14.1656 10.1724 13.4049 10.3238C12.6442 10.4751 11.9455 10.8486 11.397 11.397C10.8486 11.9455 10.4751 12.6442 10.3238 13.4049C10.1724 14.1656 10.2501 14.9542 10.5469 15.6707C10.8437 16.3873 11.3464 16.9998 11.9913 17.4307C12.6362 17.8616 13.3944 18.0916 14.17 18.0916C15.2097 18.0904 16.2065 17.6769 16.9417 16.9417C17.6769 16.2065 18.0904 15.2097 18.0916 14.17ZM19.3988 9.9216C19.3988 9.72769 19.3413 9.53815 19.2336 9.37692C19.1258 9.21569 18.9727 9.09003 18.7936 9.01583C18.6144 8.94162 18.4173 8.92221 18.2271 8.96004C18.037 8.99787 17.8623 9.09124 17.7252 9.22835C17.588 9.36546 17.4947 9.54015 17.4568 9.73033C17.419 9.92051 17.4384 10.1176 17.5126 10.2968C17.5868 10.4759 17.7125 10.629 17.8737 10.7368C18.0349 10.8445 18.2245 10.902 18.4184 10.902C18.6784 10.902 18.9278 10.7987 19.1116 10.6148C19.2955 10.431 19.3988 10.1816 19.3988 9.9216Z" fill="black"/>
</svg>
