<svg width="28" height="28" viewBox="0 0 28 28" fill="none" xmlns="http://www.w3.org/2000/svg">
<circle cx="14" cy="14" r="14" fill="#F8F8F8"/>
<g clip-path="url(#clip0_501_58)">
<path fill-rule="evenodd" clip-rule="evenodd" d="M17.2563 21.1861C17.4709 21.3381 17.7476 21.3761 17.9943 21.2828C18.2409 21.1888 18.4223 20.9781 18.4769 20.7228C19.0563 18.0001 20.4616 11.1088 20.9889 8.6321C21.0289 8.44543 20.9623 8.25143 20.8156 8.12677C20.6689 8.0021 20.4656 7.9661 20.2843 8.03343C17.4889 9.0681 8.88026 12.2981 5.3616 13.6001C5.13827 13.6828 4.99293 13.8974 5.00027 14.1328C5.00827 14.3688 5.16693 14.5734 5.3956 14.6421C6.9736 15.1141 9.04493 15.7708 9.04493 15.7708C9.04493 15.7708 10.0129 18.6941 10.5176 20.1808C10.5809 20.3674 10.7269 20.5141 10.9196 20.5648C11.1116 20.6148 11.3169 20.5621 11.4603 20.4268C12.2709 19.6614 13.5243 18.4781 13.5243 18.4781C13.5243 18.4781 15.9056 20.2241 17.2563 21.1861ZM9.91627 15.4014L11.0356 19.0934L11.2843 16.7554C11.2843 16.7554 15.6089 12.8548 18.0743 10.6314C18.1463 10.5661 18.1563 10.4568 18.0963 10.3801C18.0369 10.3034 17.9276 10.2854 17.8456 10.3374C14.9883 12.1621 9.91627 15.4014 9.91627 15.4014Z" fill="black"/>
</g>
<defs>
<clipPath id="clip0_501_58">
<rect width="16" height="16" fill="white" transform="translate(5 6)"/>
</clipPath>
</defs>
</svg>
