<svg width="28" height="28" viewBox="0 0 28 28" fill="none" xmlns="http://www.w3.org/2000/svg">
<circle cx="14" cy="14" r="14" fill="#F8F8F8"/>
<path d="M18.4353 7.70563C18.4353 7.70563 18.9451 8.18536 18.4353 7.70563C17.752 6.9569 17.3754 5.99536 17.3757 5H14.2869V16.8971C14.2631 17.5409 13.9799 18.1507 13.4969 18.5981C13.014 19.0456 12.369 19.2956 11.6979 19.2957C10.2784 19.2957 9.09883 18.1828 9.09883 16.8012C9.09883 15.1509 10.7582 13.9132 12.4676 14.4217V11.3899C9.01886 10.9486 6 13.5199 6 16.8012C6 19.9961 8.75896 22.27 11.6879 22.27C14.8267 22.27 17.3757 19.8234 17.3757 16.8012V10.7663C18.6282 11.6296 20.132 12.0928 21.6741 12.0903V9.12561C21.6741 9.12561 19.7948 9.21196 18.4353 7.70563Z" fill="black"/>
</svg>
