<svg width="323" height="32" viewBox="0 0 323 32" fill="none" xmlns="http://www.w3.org/2000/svg">
<path d="M11.1038 6.1669H0.740234V1.73131H27.3193V6.1669H16.911V31.525H11.1038V6.1669Z" fill="url(#paint0_linear_429_302)"/>
<path d="M43.5414 31.9016C40.474 31.9016 37.7938 31.2879 35.5007 30.0605C33.2373 28.8051 31.4803 27.0337 30.2295 24.7461C29.0085 22.4307 28.398 19.7108 28.398 16.5863C28.398 13.4898 29.0085 10.7978 30.2295 8.51022C31.4505 6.19479 33.1927 4.42335 35.456 3.19589C37.7491 1.96844 40.4442 1.35471 43.5414 1.35471C46.6385 1.35471 49.3188 1.96844 51.5821 3.19589C53.8752 4.42335 55.6174 6.19479 56.8086 8.51022C58.0296 10.7978 58.6401 13.4898 58.6401 16.5863C58.6401 19.7108 58.0296 22.4307 56.8086 24.7461C55.5876 27.0337 53.8454 28.8051 51.5821 30.0605C49.3188 31.2879 46.6385 31.9016 43.5414 31.9016ZM43.5414 27.5916C46.4896 27.5916 48.7827 26.6431 50.4207 24.7461C52.0586 22.8492 52.8776 20.1292 52.8776 16.5863C52.8776 13.0713 52.0586 10.3793 50.4207 8.51022C48.7827 6.61324 46.4896 5.66475 43.5414 5.66475C40.5931 5.66475 38.3 6.5993 36.6621 8.46838C35.0242 10.3375 34.2052 13.0434 34.2052 16.5863C34.2052 20.1292 35.0242 22.8492 36.6621 24.7461C38.3 26.6431 40.5931 27.5916 43.5414 27.5916Z" fill="url(#paint1_linear_429_302)"/>
<path d="M91.3449 1.73131V31.525H87.0566L69.903 10.6443V31.525H64.5425V1.73131H68.8309L85.9398 22.5702V1.73131H91.3449Z" fill="url(#paint2_linear_429_302)"/>
<path d="M110.522 1.73131H122.226C127.437 1.73131 131.472 3.02851 134.331 5.62291C137.22 8.21731 138.664 11.8718 138.664 16.5863C138.664 21.3288 137.22 25.0112 134.331 27.6334C131.472 30.2278 127.437 31.525 122.226 31.525H110.522V1.73131ZM121.868 27.1313C129.194 27.1313 132.857 23.6163 132.857 16.5863C132.857 9.61214 129.194 6.12505 121.868 6.12505H116.284V27.1313H121.868Z" fill="url(#paint3_linear_429_302)"/>
<path d="M144.146 10.3933H149.686V31.525H144.146V10.3933ZM149.82 0.794189L150.177 1.73408L146.894 5.95767L143.628 1.73408L143.951 0.794189L145.687 0.140625H148.102L149.82 0.794189Z" fill="url(#paint4_linear_429_302)"/>
<path d="M177.37 10.3933V31.525H171.875V28.1356C171.19 29.3073 170.208 30.2278 168.927 30.8974C167.647 31.539 166.187 31.8598 164.549 31.8598C162.584 31.8598 160.842 31.4135 159.323 30.5208C157.804 29.6281 156.628 28.3588 155.794 26.7129C154.96 25.0669 154.543 23.156 154.543 20.9801C154.543 18.8041 154.96 16.8792 155.794 15.2054C156.658 13.5037 157.849 12.1926 159.368 11.272C160.886 10.3235 162.614 9.84927 164.549 9.84927C166.187 9.84927 167.647 10.184 168.927 10.8535C170.208 11.4952 171.19 12.4018 171.875 13.5735V10.3933H177.37ZM166.068 27.759C167.915 27.759 169.344 27.1592 170.357 25.9596C171.369 24.7601 171.875 23.0723 171.875 20.8964C171.875 18.6646 171.369 16.949 170.357 15.7494C169.344 14.5499 167.9 13.9501 166.023 13.9501C164.177 13.9501 162.733 14.5778 161.69 15.8331C160.678 17.0606 160.172 18.7762 160.172 20.9801C160.172 23.156 160.678 24.8298 161.69 26.0015C162.733 27.1731 164.192 27.759 166.068 27.759Z" fill="url(#paint5_linear_429_302)"/>
<path d="M210.075 9.84927C212.636 9.84927 214.542 10.5746 215.793 12.0252C217.044 13.4479 217.669 15.6239 217.669 18.5531V31.525H212.085V18.7204C212.085 17.0466 211.787 15.8471 211.192 15.1218C210.626 14.3685 209.673 13.9919 208.333 13.9919C206.784 13.9919 205.563 14.508 204.67 15.5402C203.806 16.5445 203.374 17.9393 203.374 19.7247V31.525H197.791V18.7204C197.791 17.0745 197.478 15.875 196.853 15.1218C196.257 14.3685 195.304 13.9919 193.994 13.9919C192.445 13.9919 191.224 14.508 190.331 15.5402C189.437 16.5445 188.991 17.9393 188.991 19.7247V31.525H183.451V16.3771C183.451 14.1454 183.332 12.1507 183.094 10.3933H188.32L188.723 13.7409C189.378 12.4855 190.316 11.5231 191.537 10.8535C192.788 10.184 194.217 9.84927 195.825 9.84927C199.28 9.84927 201.528 11.1883 202.57 13.8664C203.285 12.611 204.298 11.6347 205.608 10.9372C206.948 10.2119 208.437 9.84927 210.075 9.84927Z" fill="url(#paint6_linear_429_302)"/>
<path d="M233.858 31.8598C231.565 31.8598 229.54 31.4135 227.783 30.5208C226.056 29.6281 224.716 28.3588 223.763 26.7129C222.84 25.039 222.378 23.0863 222.378 20.8545C222.378 18.6228 222.84 16.684 223.763 15.0381C224.716 13.3643 226.056 12.081 227.783 11.1883C229.54 10.2956 231.565 9.84927 233.858 9.84927C236.122 9.84927 238.117 10.2956 239.844 11.1883C241.572 12.081 242.897 13.3643 243.82 15.0381C244.773 16.684 245.249 18.6228 245.249 20.8545C245.249 23.0863 244.773 25.039 243.82 26.7129C242.897 28.3588 241.572 29.6281 239.844 30.5208C238.117 31.4135 236.122 31.8598 233.858 31.8598ZM233.814 27.759C235.72 27.759 237.164 27.1871 238.147 26.0433C239.159 24.8717 239.666 23.1421 239.666 20.8545C239.666 18.5949 239.159 16.8792 238.147 15.7076C237.134 14.508 235.705 13.9082 233.858 13.9082C231.982 13.9082 230.538 14.508 229.525 15.7076C228.513 16.8792 228.007 18.5949 228.007 20.8545C228.007 23.1421 228.498 24.8717 229.481 26.0433C230.493 27.1871 231.938 27.759 233.814 27.759Z" fill="url(#paint7_linear_429_302)"/>
<path d="M262.975 9.84927C268.365 9.84927 271.06 12.7505 271.06 18.5531V31.525H265.476V18.8041C265.476 17.1303 265.134 15.9168 264.449 15.1636C263.764 14.3825 262.707 13.9919 261.277 13.9919C259.58 13.9919 258.21 14.508 257.167 15.5402C256.125 16.5445 255.604 17.8835 255.604 19.5573V31.525H250.065V16.3771C250.065 14.1454 249.946 12.1507 249.707 10.3933H254.934L255.336 13.8664C256.11 12.5831 257.152 11.5928 258.463 10.8954C259.803 10.198 261.307 9.84927 262.975 9.84927Z" fill="url(#paint8_linear_429_302)"/>
<path d="M298.556 0.727029V31.525H293.062V28.1356C292.377 29.3073 291.394 30.2278 290.114 30.8974C288.833 31.539 287.374 31.8598 285.736 31.8598C283.8 31.8598 282.073 31.3995 280.554 30.4789C279.035 29.5583 277.844 28.2611 276.981 26.5873C276.147 24.8856 275.73 22.9468 275.73 20.7708C275.73 18.5949 276.147 16.684 276.981 15.0381C277.814 13.3922 278.991 12.1229 280.51 11.2302C282.028 10.3096 283.771 9.84927 285.736 9.84927C287.344 9.84927 288.774 10.1701 290.024 10.8117C291.305 11.4254 292.288 12.3042 292.973 13.4479V0.727029H298.556ZM287.21 27.759C289.057 27.759 290.486 27.1592 291.499 25.9596C292.541 24.7601 293.062 23.0584 293.062 20.8545C293.062 18.6507 292.556 16.949 291.543 15.7494C290.531 14.5499 289.101 13.9501 287.255 13.9501C285.379 13.9501 283.919 14.5499 282.877 15.7494C281.865 16.9211 281.358 18.5949 281.358 20.7708C281.358 22.9747 281.865 24.6903 282.877 25.9178C283.919 27.1453 285.364 27.759 287.21 27.759Z" fill="url(#paint9_linear_429_302)"/>
<path d="M312.902 31.8598C308.822 31.8598 305.576 30.9671 303.164 29.1817L304.727 25.4993C307.14 27.1731 309.894 28.0101 312.991 28.0101C314.332 28.0101 315.359 27.8008 316.074 27.3824C316.818 26.9639 317.19 26.3781 317.19 25.6249C317.19 24.9833 316.937 24.4811 316.431 24.1185C315.925 23.7279 315.061 23.3931 313.84 23.1142L310.088 22.3191C305.978 21.4822 303.923 19.5155 303.923 16.419C303.923 15.1357 304.31 14.0059 305.085 13.0295C305.859 12.0252 306.946 11.2441 308.346 10.6862C309.745 10.1282 311.368 9.84927 313.215 9.84927C314.823 9.84927 316.372 10.0864 317.861 10.5606C319.35 11.007 320.66 11.6626 321.792 12.5274L320.139 16.0842C317.875 14.522 315.553 13.7409 313.17 13.7409C311.89 13.7409 310.892 13.964 310.177 14.4104C309.462 14.8567 309.105 15.4705 309.105 16.2516C309.105 16.8653 309.314 17.3535 309.73 17.7162C310.177 18.0788 310.922 18.3857 311.964 18.6367L315.806 19.4318C318.039 19.906 319.662 20.6453 320.675 21.6496C321.717 22.626 322.238 23.9092 322.238 25.4993C322.238 27.4521 321.404 29.0004 319.737 30.1442C318.069 31.2879 315.791 31.8598 312.902 31.8598Z" fill="url(#paint10_linear_429_302)"/>
<defs>
<linearGradient id="paint0_linear_429_302" x1="0.740234" y1="15.8325" x2="322.238" y2="15.8325" gradientUnits="userSpaceOnUse">
<stop stop-color="#05A5F5"/>
<stop offset="1" stop-color="white"/>
</linearGradient>
<linearGradient id="paint1_linear_429_302" x1="0.740234" y1="15.8325" x2="322.238" y2="15.8325" gradientUnits="userSpaceOnUse">
<stop stop-color="#05A5F5"/>
<stop offset="1" stop-color="white"/>
</linearGradient>
<linearGradient id="paint2_linear_429_302" x1="0.740234" y1="15.8325" x2="322.238" y2="15.8325" gradientUnits="userSpaceOnUse">
<stop stop-color="#05A5F5"/>
<stop offset="1" stop-color="white"/>
</linearGradient>
<linearGradient id="paint3_linear_429_302" x1="0.740234" y1="15.8325" x2="322.238" y2="15.8325" gradientUnits="userSpaceOnUse">
<stop stop-color="#05A5F5"/>
<stop offset="1" stop-color="white"/>
</linearGradient>
<linearGradient id="paint4_linear_429_302" x1="0.740234" y1="15.8325" x2="322.238" y2="15.8325" gradientUnits="userSpaceOnUse">
<stop stop-color="#05A5F5"/>
<stop offset="1" stop-color="white"/>
</linearGradient>
<linearGradient id="paint5_linear_429_302" x1="0.740234" y1="15.8325" x2="322.238" y2="15.8325" gradientUnits="userSpaceOnUse">
<stop stop-color="#05A5F5"/>
<stop offset="1" stop-color="white"/>
</linearGradient>
<linearGradient id="paint6_linear_429_302" x1="0.740234" y1="15.8325" x2="322.238" y2="15.8325" gradientUnits="userSpaceOnUse">
<stop stop-color="#05A5F5"/>
<stop offset="1" stop-color="white"/>
</linearGradient>
<linearGradient id="paint7_linear_429_302" x1="0.740234" y1="15.8325" x2="322.238" y2="15.8325" gradientUnits="userSpaceOnUse">
<stop stop-color="#05A5F5"/>
<stop offset="1" stop-color="white"/>
</linearGradient>
<linearGradient id="paint8_linear_429_302" x1="0.740234" y1="15.8325" x2="322.238" y2="15.8325" gradientUnits="userSpaceOnUse">
<stop stop-color="#05A5F5"/>
<stop offset="1" stop-color="white"/>
</linearGradient>
<linearGradient id="paint9_linear_429_302" x1="0.740234" y1="15.8325" x2="322.238" y2="15.8325" gradientUnits="userSpaceOnUse">
<stop stop-color="#05A5F5"/>
<stop offset="1" stop-color="white"/>
</linearGradient>
<linearGradient id="paint10_linear_429_302" x1="0.740234" y1="15.8325" x2="322.238" y2="15.8325" gradientUnits="userSpaceOnUse">
<stop stop-color="#05A5F5"/>
<stop offset="1" stop-color="white"/>
</linearGradient>
</defs>
</svg>
