<svg width="38" height="38" viewBox="0 0 38 38" fill="none" xmlns="http://www.w3.org/2000/svg">
<g filter="url(#filter0_b_429_336)">
<rect x="37.1191" y="37.1992" width="37.0237" height="37.0237" rx="18.5118" transform="rotate(180 37.1191 37.1992)" fill="url(#paint0_linear_429_336)"/>
</g>
<path fill-rule="evenodd" clip-rule="evenodd" d="M24.2433 11.7461H12.9244C12.4918 11.7461 12.1314 11.8183 11.6988 12.0348C11.1941 12.2513 10.9057 12.6122 10.7616 12.9009C10.7616 12.9009 10.7616 12.9731 10.6895 12.9731C10.4732 13.334 10.329 13.767 10.329 14.2723C10.329 14.7053 10.4011 15.1384 10.6895 15.5715L17.8268 27.8415C17.971 28.1302 18.2594 28.2745 18.6199 28.2745C18.9083 28.2745 19.1966 28.1302 19.4129 27.8415L26.4061 15.5715C26.5503 15.2827 26.8387 14.9219 26.8387 14.3445C26.9108 13.8392 26.7666 13.4062 26.5503 12.9731C26.334 12.54 25.9735 12.1792 25.4689 12.0348C25.0363 11.7461 24.5316 11.7461 24.2433 11.7461ZM19.485 13.4783H24.2433C24.5316 13.4783 24.6758 13.4783 24.7479 13.5505C24.8921 13.6227 24.9642 13.6949 25.0363 13.8392C25.1084 13.9114 25.1084 14.0557 25.1084 14.2001C25.1084 14.2723 25.0363 14.3445 24.8921 14.6332L19.485 24.0161V13.4783ZM17.7547 13.4783V24.0883L12.2755 14.6332C12.2035 14.4888 12.2034 14.3444 12.2034 14.2001C12.2034 14.0557 12.2035 13.9114 12.2755 13.8392C12.3476 13.767 12.3476 13.6949 12.4197 13.6949L12.4918 13.6227C12.636 13.5505 12.7802 13.5505 12.9965 13.5505H17.7547V13.4783Z" fill="white"/>
<defs>
<filter id="filter0_b_429_336" x="-88.056" y="-87.9759" width="213.327" height="213.327" filterUnits="userSpaceOnUse" color-interpolation-filters="sRGB">
<feFlood flood-opacity="0" result="BackgroundImageFix"/>
<feGaussianBlur in="BackgroundImage" stdDeviation="44.0758"/>
<feComposite in2="SourceAlpha" operator="in" result="effect1_backgroundBlur_429_336"/>
<feBlend mode="normal" in="SourceGraphic" in2="effect1_backgroundBlur_429_336" result="shape"/>
</filter>
<linearGradient id="paint0_linear_429_336" x1="59.102" y1="51.0831" x2="45.2181" y2="74.2229" gradientUnits="userSpaceOnUse">
<stop stop-color="#00050A"/>
<stop offset="1" stop-color="#4D4D4D"/>
</linearGradient>
</defs>
</svg>
