<svg width="28" height="28" viewBox="0 0 28 28" fill="none" xmlns="http://www.w3.org/2000/svg">
<circle cx="14" cy="14" r="14" fill="#F8F8F8"/>
<path d="M21.3815 9.47982C20.8156 9.73106 20.2073 9.90025 19.569 9.97652C20.2208 9.58621 20.7213 8.96775 20.9565 8.23072C20.3471 8.59219 19.6716 8.85495 18.9525 8.99659C18.3776 8.38325 17.5566 8 16.6491 8C14.6117 8 13.1146 9.90089 13.5747 11.8742C10.9528 11.7428 8.62767 10.4867 7.07093 8.57745C6.24418 9.99574 6.64218 11.8511 8.04702 12.7907C7.53046 12.774 7.04338 12.6324 6.61846 12.3959C6.58385 13.8578 7.63172 15.2254 9.14935 15.5299C8.70521 15.6504 8.21878 15.6786 7.72401 15.5837C8.12521 16.8373 9.29035 17.7493 10.6721 17.7749C9.34547 18.8151 7.67402 19.2797 6 19.0823C7.39651 19.9777 9.05578 20.5 10.8375 20.5C16.6965 20.5 20.0067 15.5517 19.8068 11.1135C20.4233 10.668 20.9585 10.1124 21.3815 9.47982Z" fill="black"/>
</svg>
