<svg width="28" height="28" viewBox="0 0 28 28" fill="none" xmlns="http://www.w3.org/2000/svg">
<circle cx="14" cy="14" r="14" fill="#F8F8F8"/>
<path d="M17.328 15.93C17.3967 15.3839 17.4482 14.8377 17.4482 14.275C17.4482 13.7123 17.3967 13.1662 17.328 12.62H20.2297C20.3671 13.1496 20.4529 13.704 20.4529 14.275C20.4529 14.846 20.3671 15.4004 20.2297 15.93H17.328ZM15.8085 20.5309C16.3236 19.6124 16.7185 18.6194 16.9932 17.585H19.5257C18.694 18.9655 17.3744 20.0112 15.8085 20.5309ZM15.5938 15.93H11.5761C11.4902 15.3839 11.4387 14.8377 11.4387 14.275C11.4387 13.7123 11.4902 13.1579 11.5761 12.62H15.5938C15.6711 13.1579 15.7312 13.7123 15.7312 14.275C15.7312 14.8377 15.6711 15.3839 15.5938 15.93ZM13.585 20.8619C12.8724 19.8689 12.2972 18.7683 11.9452 17.585H15.2247C14.8727 18.7683 14.2975 19.8689 13.585 20.8619ZM10.151 10.965H7.64416C8.46734 9.58077 9.78593 8.53338 11.3529 8.0191C10.8378 8.93762 10.4514 9.93062 10.151 10.965ZM7.64416 17.585H10.151C10.4514 18.6194 10.8378 19.6124 11.3529 20.5309C9.78922 20.011 8.47248 18.965 7.64416 17.585ZM6.9402 15.93C6.80284 15.4004 6.71699 14.846 6.71699 14.275C6.71699 13.704 6.80284 13.1496 6.9402 12.62H9.84191C9.77323 13.1662 9.72172 13.7123 9.72172 14.275C9.72172 14.8377 9.77323 15.3839 9.84191 15.93H6.9402ZM13.585 7.67983C14.2975 8.67283 14.8727 9.78167 15.2247 10.965H11.9452C12.2972 9.78167 12.8724 8.67283 13.585 7.67983ZM19.5257 10.965H16.9932C16.7245 9.94011 16.3266 8.95078 15.8085 8.0191C17.3881 8.54043 18.7016 9.59135 19.5257 10.965ZM13.585 6C8.83747 6 5 9.72375 5 14.275C5 16.4697 5.90448 18.5744 7.51447 20.1263C8.31166 20.8947 9.25806 21.5042 10.2996 21.9201C11.3412 22.336 12.4576 22.55 13.585 22.55C15.8618 22.55 18.0454 21.6782 19.6554 20.1263C21.2654 18.5744 22.1699 16.4697 22.1699 14.275C22.1699 13.1883 21.9478 12.1123 21.5164 11.1083C21.085 10.1043 20.4526 9.1921 19.6554 8.42369C18.8582 7.65529 17.9118 7.04575 16.8703 6.6299C15.8287 6.21404 14.7123 6 13.585 6Z" fill="black"/>
</svg>
